<svg width="249" height="121" viewBox="0 0 249 121" fill="none" xmlns="http://www.w3.org/2000/svg">
<path d="M0 114.5V120.5H127.25L127.5 6H0.5H0V12.5C2.33333 12.5 7 13.8 7 19C7 24.2 2.33333 25.1667 0 25V30C2.33333 30 7 31.3 7 36.5C7 41.7 2.33333 43 0 43V48.5C2.33333 48.1667 7 48.9 7 54.5C7 60.1 2.33333 61.1667 0 61V65.5C2.16667 65.5 6.5 66.9 6.5 72.5C6.5 78.1 2.16667 79.1667 0 79V83.5C2.5 83.3333 7.5 84.4 7.5 90C7.5 95.6 2.5 96.6667 0 96.5V101.5C2.5 101.667 7.5 103.3 7.5 108.5C7.5 113.7 2.5 114.667 0 114.5Z" fill="#FCA311"/>
<path d="M248.25 6V0H121.25L121 114.5H248.25V108C246.083 108 241.75 106.8 241.75 102C241.75 97.2 246.083 95.6667 248.25 95.5V90.5C246.25 90.3333 242.25 88.8 242.25 84C242.25 79.2 246.25 78 248.25 78V72.5C246.25 72.5 242.25 71.3 242.25 66.5C242.25 61.7 246.25 60.5 248.25 60.5V55C246.083 55.5 241.75 55 241.75 49C241.75 43 246.083 41.8333 248.25 42V37C246.083 37 241.75 35.7 241.75 30.5C241.75 25.3 246.083 24 248.25 24V18.5C246.083 18.6667 241.75 17.7 241.75 12.5C241.75 7.3 246.083 6 248.25 6Z" fill="#E6E6E6"/>
</svg>
