<svg width="1082" height="45" viewBox="0 0 1082 45" fill="none" xmlns="http://www.w3.org/2000/svg">
<path d="M1081.5 44.5H0.5V25.5C1 24.6667 5.6 20.6 20 11C34.4 1.4 61.3333 10.6667 73 16.5C88.8333 25.3333 126.3 39 149.5 23C172.7 7 193.167 16.3333 200.5 23C199.833 24.6667 206.2 28.6 237 31C275.5 34 302.5 11.5 330.5 9.5C352.9 7.9 380.167 19.1667 391 25C407.833 32.3333 444.1 44.3 454.5 33.5C467.5 20 505 14.5 501 17C497 19.5 499 30 505 31.5C511 33 540 27 554 17C568 7 589 7.5 586.5 7.5C584.5 7.5 585.667 13.8333 586.5 17C593.833 23.3333 612.9 35.4 630.5 33C648.1 30.6 633.5 13.3333 624 5C649 16.6667 705.6 37.4 732 27C758.4 16.6 819.333 26.6667 846.5 33C860.667 36.3333 894.1 39 914.5 23C934.9 7 957.333 13.6667 966 19C968.167 22.1667 979.9 30.2 1009.5 37C1039.1 43.8 1069.83 15.5 1081.5 0.5V44.5Z" fill="#D9D9D9"/>
</svg>
