<?xml version="1.0" standalone="no"?><svg xmlns="http://www.w3.org/2000/svg" viewBox="0 0 1440 320"><path fill="#fca311" fill-opacity="1" d="M0,64L14.1,90.7C28.2,117,56,171,85,165.3C112.9,160,141,96,169,96C197.6,96,226,160,254,208C282.4,256,311,288,339,293.3C367.1,299,395,277,424,250.7C451.8,224,480,192,508,160C536.5,128,565,96,593,90.7C621.2,85,649,107,678,138.7C705.9,171,734,213,762,197.3C790.6,181,819,107,847,117.3C875.3,128,904,224,932,256C960,288,988,256,1016,208C1044.7,160,1073,96,1101,64C1129.4,32,1158,32,1186,53.3C1214.1,75,1242,117,1271,117.3C1298.8,117,1327,75,1355,64C1383.5,53,1412,75,1426,85.3L1440,96L1440,0L1425.9,0C1411.8,0,1384,0,1355,0C1327.1,0,1299,0,1271,0C1242.4,0,1214,0,1186,0C1157.6,0,1129,0,1101,0C1072.9,0,1045,0,1016,0C988.2,0,960,0,932,0C903.5,0,875,0,847,0C818.8,0,791,0,762,0C734.1,0,706,0,678,0C649.4,0,621,0,593,0C564.7,0,536,0,508,0C480,0,452,0,424,0C395.3,0,367,0,339,0C310.6,0,282,0,254,0C225.9,0,198,0,169,0C141.2,0,113,0,85,0C56.5,0,28,0,14,0L0,0Z"></path></svg>